<svg width="512" height="512" viewBox="0 0 512 512" fill="none" xmlns="http://www.w3.org/2000/svg">
  <rect width="512" height="512" rx="120" fill="#0F172A"/>
  <circle cx="376" cy="136" r="56" fill="#F59E0B" opacity="0.95"/>
  <path d="M376 104V168" stroke="#0F172A" stroke-width="16" stroke-linecap="round"/>
  <path d="M401 119C393 109 381 104 368 104C352 104 340 113 340 126C340 140 351 147 373 152C397 158 412 166 412 184C412 201 396 214 375 214C359 214 345 208 336 197" stroke="#0F172A" stroke-width="16" stroke-linecap="round" stroke-linejoin="round"/>
  <path d="M257 330C257 257 315 199 388 199C416 199 441 207 463 223C448 159 391 112 322 112C242 112 177 177 177 257C177 324 224 380 287 396C268 378 257 355 257 330Z" fill="#16A34A"/>
  <path d="M249 194C204 194 166 231 166 276C166 316 196 350 234 357C223 341 217 322 217 302C217 253 253 212 299 204C285 198 268 194 249 194Z" fill="#22C55E"/>
  <path d="M256 154L256 334" stroke="#8B5E3C" stroke-width="20" stroke-linecap="round"/>
  <path d="M256 222C223 222 194 237 176 262" stroke="#8B5E3C" stroke-width="16" stroke-linecap="round"/>
  <path d="M256 246C293 246 328 263 350 292" stroke="#8B5E3C" stroke-width="16" stroke-linecap="round"/>
  <path d="M256 282C228 282 205 295 191 315" stroke="#8B5E3C" stroke-width="14" stroke-linecap="round"/>
  <path d="M206 408H306" stroke="#8B5E3C" stroke-width="20" stroke-linecap="round"/>
  <path d="M155 404C186 382 218 370 256 370C294 370 326 382 357 404" stroke="#38BDF8" stroke-width="18" stroke-linecap="round" opacity="0.9"/>
</svg>
