<svg width="512" height="512" viewBox="0 0 512 512" fill="none" xmlns="http://www.w3.org/2000/svg">
  <rect width="512" height="512" rx="120" fill="#111827"/>
  <rect x="96" y="244" width="320" height="144" rx="36" fill="#22C55E"/>
  <rect x="120" y="212" width="272" height="144" rx="32" fill="#4ADE80"/>
  <rect x="144" y="180" width="224" height="144" rx="28" fill="#86EFAC"/>
  <circle cx="256" cy="252" r="48" fill="#14532D" opacity="0.18"/>
  <circle cx="256" cy="252" r="36" fill="#F59E0B"/>
  <path d="M256 224V280" stroke="#111827" stroke-width="14" stroke-linecap="round"/>
  <path d="M278 236C271 229 261 224 250 224C236 224 226 232 226 243C226 255 236 261 256 266C277 271 290 278 290 293C290 307 276 318 258 318C245 318 233 313 225 304" stroke="#111827" stroke-width="14" stroke-linecap="round" stroke-linejoin="round"/>
  <path d="M160 144C182 120 210 108 246 108C286 108 320 124 344 152" stroke="#38BDF8" stroke-width="16" stroke-linecap="round"/>
  <path d="M188 132L202 176L244 162" stroke="#38BDF8" stroke-width="16" stroke-linecap="round" stroke-linejoin="round"/>
</svg>
